<svg version="1.1" id="Layer_1" xmlns:x="ns_extend;" xmlns:i="ns_ai;" xmlns:graph="ns_graphs;" xmlns="http://www.w3.org/2000/svg" xmlns:xlink="http://www.w3.org/1999/xlink" x="0px" y="0px" viewBox="0 0 64.9 65" style="enable-background:new 0 0 64.9 65;" xml:space="preserve">
 <style type="text/css">
  .st0{fill:#F3F3F3;}
	.st1{fill:#803588;}
	.st2{fill:#4C215C;}
 </style>
 <metadata>
  <sfw xmlns="ns_sfw;">
   <slices>
   </slices>
   <sliceSourceBounds bottomLeftOrigin="true" height="65" width="64.9" x="0.4" y="60.6">
   </sliceSourceBounds>
  </sfw>
 </metadata>
 <g>
  <path class="st0" d="M5.8,0h53.3c3.2,0,5.8,2.6,5.8,5.8v53.4c0,3.2-2.6,5.8-5.8,5.8H5.8C2.6,65,0,62.4,0,59.2V5.8
		C0,2.6,2.6,0,5.8,0z">
  </path>
  <path class="st1" d="M43.1,25.4c2,0.8,3.8,2,5.3,3.6c2,2.2,3.3,4.9,3.7,7.9c0.4,2.7,0.2,5.3-1.1,7.7c-1.9,3.7-4.7,6.5-8.7,7.8
		c-2.8,0.9-5.7,1.6-8.5,2.5c-1.8,0.5-3.7,1.1-5.5,1.6c-2.5,0.7-4.7-0.5-5.5-3c-1.7-6-3.5-12-5.2-17.9s-3.4-11.8-5.1-17.7
		c-0.7-2.4,0.6-4.7,3-5.4c4.6-1.3,9.2-2.7,13.8-4c2.9-0.9,5.8-0.5,8.5,0.8c3.9,1.8,5.9,5.1,6.5,9.3c0.4,2.4-0.1,4.6-1.1,6.7
		C43.1,25.2,43.1,25.3,43.1,25.4z M38.8,50.6c0.8-0.2,1.6-0.5,2.4-0.7c5.5-1.6,9.1-7.3,8.2-12.9c-0.8-4.9-4.4-8.7-9.2-9.7
		c-0.5-0.1-1-0.2-1.6-0.3c0.1-0.1,0.2-0.2,0.3-0.3c1.9-1.8,2.9-4,2.9-6.6c0.1-2.4-0.7-4.5-2.2-6.3c-1.9-2.4-4.4-3.6-7.5-3.3
		c-1.1,0.1-2.2,0.4-3.3,0.7c-4.1,1.2-8.2,2.4-12.3,3.6c-1.2,0.4-1.8,1.6-1.3,2.8c0,0.2,0.1,0.4,0.1,0.6c3.3,11.4,6.5,22.7,9.8,34.1
		c0.4,1.3,1.5,1.9,2.7,1.5c1.1-0.3,2.2-0.6,3.3-0.9C33.7,52.1,36.2,51.4,38.8,50.6z">
  </path>
  <path class="st1" d="M38.8,50.6c-2.5,0.8-5.1,1.5-7.6,2.3c-1.1,0.3-2.2,0.6-3.3,0.9c-1.3,0.4-2.4-0.3-2.7-1.5
		c-3.3-11.4-6.5-22.7-9.8-34.1c0-0.2-0.1-0.4-0.1-0.6c0.1-0.1,0.3-0.2,0.4-0.3c1.2-0.4,2.5-0.8,3.8-1.1c2.1-0.6,4.2-1.2,6.2-1.8
		c0.9-0.2,1.8-0.5,2.7-0.6c1.9-0.2,3.9,0.3,5.4,1.4c1.5,1,2.5,2.4,3.2,4s0.9,3.3,0.7,5.1c-0.2,1.9-1.1,3.5-2.4,4.9
		c-0.2,0.2-0.4,0.4-0.7,0.6c0.9,0.1,1.6,0.1,2.2,0.3c1.4,0.3,2.8,0.9,3.9,1.8c1.2,0.9,2.2,1.9,2.9,3.1c0.8,1.4,1.4,2.9,1.5,4.5
		c0.2,2.5-0.2,4.8-1.6,6.9c-0.9,1.4-1.9,2.5-3.3,3.4C39.8,50,39.3,50.3,38.8,50.6z">
  </path>
  <path class="st2" d="M38.8,50.6c0.5-0.3,1-0.6,1.6-0.9c1.4-0.8,2.4-2,3.3-3.4c1.3-2.1,1.8-4.4,1.6-6.9c-0.1-1.6-0.7-3.1-1.5-4.5
		c-0.8-1.2-1.7-2.3-2.9-3.1c-1.2-0.9-2.5-1.4-3.9-1.8c-0.7-0.2-1.4-0.2-2.2-0.3c0.3-0.2,0.5-0.4,0.7-0.6c1.3-1.4,2.1-3,2.4-4.9
		c0.2-1.7,0-3.4-0.7-5.1c-0.7-1.6-1.7-3-3.2-4c-1.6-1.1-3.5-1.6-5.4-1.4c-0.9,0.1-1.8,0.4-2.7,0.6c-2.1,0.6-4.2,1.2-6.2,1.8
		c-1.3,0.4-2.5,0.7-3.8,1.1c-0.2,0-0.3,0.2-0.4,0.3c-0.5-1.2,0.1-2.5,1.3-2.8c4.1-1.2,8.2-2.4,12.3-3.6c1.1-0.3,2.2-0.6,3.3-0.7
		c3.1-0.2,5.6,0.9,7.5,3.3c1.5,1.9,2.3,4,2.2,6.3c-0.1,2.6-1.1,4.8-2.9,6.6c-0.1,0.1-0.2,0.2-0.3,0.3c0.6,0.1,1.1,0.2,1.6,0.3
		c4.9,1,8.4,4.8,9.2,9.7c0.9,5.7-2.7,11.3-8.2,12.9C40.4,50.2,39.6,50.4,38.8,50.6z">
  </path>
 </g>
</svg>