<svg xmlns="http://www.w3.org/2000/svg" xmlns:xlink="http://www.w3.org/1999/xlink" width="500" zoomAndPan="magnify" viewBox="0 0 375 374.999991" height="500" preserveAspectRatio="xMidYMid meet" version="1.0"><defs><clipPath id="4abe910cd5"><path d="M 69.769531 68.757812 L 178.519531 68.757812 L 178.519531 177.507812 L 69.769531 177.507812 Z M 69.769531 68.757812 " clip-rule="nonzero"/></clipPath><clipPath id="1183508bdf"><path d="M 99.769531 68.757812 L 148.871094 68.757812 C 156.828125 68.757812 164.457031 71.917969 170.082031 77.546875 C 175.710938 83.171875 178.871094 90.800781 178.871094 98.757812 L 178.871094 147.859375 C 178.871094 155.816406 175.710938 163.449219 170.082031 169.074219 C 164.457031 174.699219 156.828125 177.859375 148.871094 177.859375 L 99.769531 177.859375 C 91.8125 177.859375 84.179688 174.699219 78.554688 169.074219 C 72.929688 163.449219 69.769531 155.816406 69.769531 147.859375 L 69.769531 98.757812 C 69.769531 90.800781 72.929688 83.171875 78.554688 77.546875 C 84.179688 71.917969 91.8125 68.757812 99.769531 68.757812 Z M 99.769531 68.757812 " clip-rule="nonzero"/></clipPath><clipPath id="b9793de386"><path d="M 200.535156 68.757812 L 309.285156 68.757812 L 309.285156 177.507812 L 200.535156 177.507812 Z M 200.535156 68.757812 " clip-rule="nonzero"/></clipPath><clipPath id="31fa12d818"><path d="M 255.085938 68.757812 C 224.960938 68.757812 200.535156 93.183594 200.535156 123.308594 C 200.535156 153.4375 224.960938 177.859375 255.085938 177.859375 C 285.214844 177.859375 309.636719 153.4375 309.636719 123.308594 C 309.636719 93.183594 285.214844 68.757812 255.085938 68.757812 Z M 255.085938 68.757812 " clip-rule="nonzero"/></clipPath><clipPath id="3af4324489"><path d="M 66 195 L 183 195 L 183 301.527344 L 66 301.527344 Z M 66 195 " clip-rule="nonzero"/></clipPath><clipPath id="939bdd7eff"><path d="M 139.199219 203.910156 L 180.09375 275.480469 C 183.175781 280.871094 183.152344 287.488281 180.039062 292.855469 C 176.921875 298.222656 171.1875 301.527344 164.980469 301.527344 L 83.648438 301.527344 C 77.441406 301.527344 71.707031 298.222656 68.589844 292.855469 C 65.476562 287.488281 65.453125 280.871094 68.535156 275.480469 L 109.429688 203.910156 C 112.484375 198.570312 118.164062 195.273438 124.316406 195.273438 C 130.464844 195.273438 136.144531 198.570312 139.199219 203.910156 Z M 139.199219 203.910156 " clip-rule="nonzero"/></clipPath></defs><g clip-path="url(#4abe910cd5)"><g clip-path="url(#1183508bdf)"><path stroke-linecap="butt" transform="matrix(0.75, 0, 0, 0.75, 69.768324, 68.758903)" fill="none" stroke-linejoin="miter" d="M 40.001612 -0.00145465 L 105.470367 -0.00145465 C 116.079742 -0.00145465 126.251618 4.212087 133.751619 11.717296 C 141.256827 19.217297 145.470369 29.389172 145.470369 39.998548 L 145.470369 105.467302 C 145.470369 116.076678 141.256827 126.253762 133.751619 133.753762 C 126.251618 141.253763 116.079742 145.467305 105.470367 145.467305 L 40.001612 145.467305 C 29.392237 145.467305 19.215153 141.253763 11.715152 133.753762 C 4.215152 126.253762 0.00160978 116.076678 0.00160978 105.467302 L 0.00160978 39.998548 C 0.00160978 29.389172 4.215152 19.217297 11.715152 11.717296 C 19.215153 4.212087 29.392237 -0.00145465 40.001612 -0.00145465 Z M 40.001612 -0.00145465 " stroke="#cb6ce6" stroke-width="62" stroke-opacity="1" stroke-miterlimit="4"/></g></g><g clip-path="url(#b9793de386)"><g clip-path="url(#31fa12d818)"><path stroke-linecap="butt" transform="matrix(0.75, 0, 0, 0.75, 200.53593, 68.758903)" fill="none" stroke-linejoin="miter" d="M 72.733348 -0.00145465 C 32.566679 -0.00145465 -0.00103131 32.566256 -0.00103131 72.732925 C -0.00103131 112.904803 32.566679 145.467305 72.733348 145.467305 C 112.905226 145.467305 145.467728 112.904803 145.467728 72.732925 C 145.467728 32.566256 112.905226 -0.00145465 72.733348 -0.00145465 Z M 72.733348 -0.00145465 " stroke="#ff3131" stroke-width="62" stroke-opacity="1" stroke-miterlimit="4"/></g></g><g clip-path="url(#3af4324489)"><g clip-path="url(#939bdd7eff)"><path stroke-linecap="butt" transform="matrix(0.75, 0, 0, 0.75, 53.650503, 177.864598)" fill="none" stroke-linejoin="miter" d="M 114.064961 34.727413 L 168.591007 130.154503 C 172.700382 137.342003 172.669132 146.164921 168.51809 153.321171 C 164.36184 160.477422 156.716006 164.883672 148.439964 164.883672 L 39.997248 164.883672 C 31.721206 164.883672 24.075372 160.477422 19.919122 153.321171 C 15.76808 146.164921 15.73683 137.342003 19.846205 130.154503 L 74.37225 34.727413 C 78.445167 27.607621 86.018084 23.211788 94.22121 23.211788 C 102.419127 23.211788 109.992044 27.607621 114.064961 34.727413 Z M 114.064961 34.727413 " stroke="#7ed957" stroke-width="62" stroke-opacity="1" stroke-miterlimit="4"/></g></g><path stroke-linecap="round" transform="matrix(0.53033, -0.53033, 0.53033, 0.53033, 198.155471, 290.439941)" fill="none" stroke-linejoin="miter" d="M 15.496778 15.499541 L 168.198706 15.503224 " stroke="#8c52ff" stroke-width="31" stroke-opacity="1" stroke-miterlimit="4"/><path stroke-linecap="round" transform="matrix(-0.53033, -0.53033, 0.53033, -0.53033, 295.570444, 306.880204)" fill="none" stroke-linejoin="miter" d="M 15.498772 15.498524 L 168.197018 15.498524 " stroke="#8c52ff" stroke-width="31" stroke-opacity="1" stroke-miterlimit="4"/></svg>